<svg width="249" height="249" viewBox="0 0 249 249" fill="none" xmlns="http://www.w3.org/2000/svg">
<path d="M142.286 53.3572L115.411 107.088C97.7503 108.066 83.2371 110.912 76.0517 114.682L59.2264 148.351L35.5714 195.643H0L71.1429 53.3572H142.286Z" fill="#2563EB"/>
<path d="M182.57 115.074L165.3 149.614L142.286 195.643H106.714L133.82 141.45C126.865 140.721 119.218 140.312 111.161 140.312C106.857 140.312 102.677 140.436 98.6396 140.65L71.1428 195.643H35.5714L59.2264 148.351L76.0517 114.682C83.2371 110.912 97.7503 108.066 115.411 107.088C119.751 106.839 124.287 106.714 128.946 106.714C136.648 106.714 143.975 107.052 150.681 107.693C165.158 109.044 176.719 111.73 182.57 115.074Z" fill="#1E40AF"/>
<path d="M249 53.3572L177.857 195.643H142.286L165.3 149.613L182.57 115.074C176.719 111.73 165.158 109.044 150.681 107.693L177.857 53.3572H249Z" fill="#2563EB"/>
</svg>
